<svg id="Layer_1" data-name="Layer 1" xmlns="http://www.w3.org/2000/svg" viewBox="0 0 500 500" width="500px" height="500px"><defs><style>.cls-1,.cls-2{fill:#fff;}.cls-2,.cls-5,.cls-7,.cls-9{fill-rule:evenodd;}.cls-3,.cls-5,.cls-6,.cls-8,.cls-9{fill:none;stroke:#d5c5a9;}.cls-3,.cls-4,.cls-5,.cls-6,.cls-8,.cls-9{stroke-miterlimit:10;}.cls-3,.cls-4{stroke-width:2.89px;}.cls-4,.cls-7{fill:#1b2b59;}.cls-4{stroke:#fff;}.cls-5,.cls-6{stroke-width:2.89px;}.cls-8{stroke-width:1.08px;}.cls-9{stroke-width:1.81px;}</style></defs><circle class="cls-1" cx="250" cy="250" r="246.54" transform="translate(-36.82 456.72) rotate(-80.78)"/><path class="cls-2" d="M250,17.39c128.46,0,232.61,104.17,232.61,232.62S378.45,482.61,250,482.61,17.39,378.46,17.39,250,121.55,17.39,250,17.39Z"/><path class="cls-3" d="M158.39,210.44v7.84H130.08v26h24v7.83h-24v36.38H107.44V210.44Z"/><path class="cls-3" d="M201.46,210.44l21.73,78.07H200.43l-4.64-16.93h-23.5l-5,16.93h-8.86l23.1-78.07Zm-26.94,53.3h19.16l-9.21-34.6Z"/><path class="cls-3" d="M229.25,288.51V210.44H264q26.82,0,26.82,19.16,0,13.62-16.18,17.44,19.5,3.9,19.5,20.71,0,20.76-26.25,20.76Zm22.65-44.1h7q9.67,0,9.67-14.29,0-13.22-10.24-13.21h-6.4Zm0,37.63h6.46q12.69,0,12.69-14.52,0-16.65-13.09-16.64H251.9Z"/><path class="cls-3" d="M325.55,210.44v78.07H302.91V210.44Z"/><path class="cls-3" d="M395.5,210.44v7.09L358,280.67h34.71v7.84H332.93v-7.84L370,218.28H338.25v-7.84Z"/><path class="cls-4" d="M156.21,208.52v7.73H127.86V242h24.06v7.74H127.86v35.93H105.18v-77.1Z"/><path class="cls-4" d="M199.34,208.52l21.77,77.1h-22.8l-4.64-16.72H170.13l-5,16.72h-8.88l23.14-77.1Zm-27,52.64h19.18L182.33,227Z"/><path class="cls-4" d="M227.18,285.62v-77.1h34.76q26.87,0,26.86,18.92,0,13.44-16.2,17.22,19.53,3.85,19.53,20.45,0,20.5-26.29,20.51Zm22.68-43.55h7q9.67,0,9.68-14.12,0-13-10.26-13h-6.41Zm0,37.16h6.47q12.72,0,12.71-14.34,0-16.44-13.11-16.44h-6.07Z"/><path class="cls-4" d="M323.63,208.52v77.1H301v-77.1Z"/><path class="cls-4" d="M393.67,208.52v7L356.1,277.88h34.77v7.74H331v-7.74l37.11-61.63H336.34v-7.73Z"/><path class="cls-5" d="M409.44,251.44a158,158,0,1,1-158-158A158,158,0,0,1,409.44,251.44Z"/><circle class="cls-6" cx="250" cy="250" r="232.61" transform="translate(-103.55 250) rotate(-45)"/><path class="cls-7" d="M250,25.37C374,25.37,474.63,126,474.63,250S374,474.63,250,474.63,25.37,374,25.37,250,126,25.37,250,25.37Zm2,60.35A166.26,166.26,0,1,0,418.22,252,166.27,166.27,0,0,0,252,85.72Z"/><path class="cls-8" d="M196.11,143.09a12.4,12.4,0,0,0-5.69-1.43,7.63,7.63,0,0,0-2.95.45c-.68.3-1,.72-1,1.25s.36,1,1.09,1.22a10.42,10.42,0,0,0,2.55.38c1.74.11,2.88.21,3.44.28A7.53,7.53,0,0,1,197,146.4a2.84,2.84,0,0,1,1.12,2.41,3.44,3.44,0,0,1-1.77,3.09,9.71,9.71,0,0,1-5.08,1.09c-3.2,0-5.7-.7-7.48-2.11l1.15-1.51a12,12,0,0,0,6.35,1.8,7.72,7.72,0,0,0,3.42-.61,1.79,1.79,0,0,0,1.16-1.61c0-.8-.51-1.33-1.53-1.6a35.35,35.35,0,0,0-4.3-.43,12.85,12.85,0,0,1-4.36-.83,2.53,2.53,0,0,1-1.45-2.45,3.14,3.14,0,0,1,1.65-2.79,8.88,8.88,0,0,1,4.68-1,11.83,11.83,0,0,1,6.8,1.86Z"/><path class="cls-8" d="M203.47,152.7h-2.08V140.14h2.08Z"/><path class="cls-8" d="M221.78,152.7h-2.59l-9.59-10.3v10.3h-2.09V140.14h2.59l9.59,10.3v-10.3h2.09Z"/><path class="cls-8" d="M240.64,143l-1.89.68a7,7,0,0,0-5.35-2,6.5,6.5,0,0,0-4.24,1.33,4.41,4.41,0,0,0,0,6.85,7.8,7.8,0,0,0,9.62-.76l1.79,1a8.08,8.08,0,0,1-3.06,2.28,10.69,10.69,0,0,1-4.09.71,8.91,8.91,0,0,1-5.53-1.67,6.16,6.16,0,0,1,0-10,8.86,8.86,0,0,1,5.5-1.68A8.58,8.58,0,0,1,240.64,143Z"/><path class="cls-8" d="M257.28,152.7H244.12V140.14h12.67V142H246.21v3.23h7.35v1.87h-7.35v3.71h11.07Z"/><path class="cls-8" d="M268.12,152.7H266V142.22l-2,.87v-1.81a5.58,5.58,0,0,0,2-1.14h2.08Z"/><path class="cls-8" d="M282,145.83a6.6,6.6,0,0,1-5.26,2.22,7.24,7.24,0,0,1-4.15-1.06,3.28,3.28,0,0,1-1.54-2.84,3.57,3.57,0,0,1,1.61-3.05,8.8,8.8,0,0,1,9.65.65,6.13,6.13,0,0,1,2,4.76,6,6,0,0,1-2.08,4.68,7.11,7.11,0,0,1-4.87,1.73,7.69,7.69,0,0,1-5.64-2.13l1.4-1.35a5.08,5.08,0,0,0,4.1,1.58,5.68,5.68,0,0,0,2.1-.39,4.31,4.31,0,0,0,2-1.62,4.22,4.22,0,0,0,.77-2.49A1.94,1.94,0,0,0,282,145.83Zm-.47-2q-1.26-2.07-4.62-2.07a5.26,5.26,0,0,0-2.73.6,1.8,1.8,0,0,0-1,1.58,1.89,1.89,0,0,0,1,1.65,5,5,0,0,0,2.68.61A5.36,5.36,0,0,0,281.48,143.87Z"/><path class="cls-8" d="M297.25,145.83a6.58,6.58,0,0,1-5.25,2.22,7.28,7.28,0,0,1-4.16-1.06,3.29,3.29,0,0,1-1.53-2.84,3.56,3.56,0,0,1,1.6-3.05,8.81,8.81,0,0,1,9.66.65,6.17,6.17,0,0,1,2,4.76,6,6,0,0,1-2.08,4.68,7.14,7.14,0,0,1-4.88,1.73,7.72,7.72,0,0,1-5.64-2.13l1.41-1.35a5.06,5.06,0,0,0,4.09,1.58,5.68,5.68,0,0,0,2.1-.39,4.34,4.34,0,0,0,2.06-1.62,4.29,4.29,0,0,0,.77-2.49A1.92,1.92,0,0,0,297.25,145.83Zm-.46-2q-1.28-2.07-4.63-2.07a5.25,5.25,0,0,0-2.72.6,1.79,1.79,0,0,0-1,1.58,1.89,1.89,0,0,0,1,1.65,5,5,0,0,0,2.68.61A5.39,5.39,0,0,0,296.79,143.87Z"/><path class="cls-8" d="M315.51,146.43a6.18,6.18,0,0,1-1.94,4.57,6.45,6.45,0,0,1-4.65,1.89,6.38,6.38,0,0,1-4.64-1.88,6.3,6.3,0,0,1,0-9.15,6.68,6.68,0,0,1,9.25,0A6.2,6.2,0,0,1,315.51,146.43Zm-2.1,0a4.49,4.49,0,0,0-1.26-3.29,4.73,4.73,0,0,0-6.47,0,4.91,4.91,0,0,0,0,6.58,4.68,4.68,0,0,0,6.45,0A4.47,4.47,0,0,0,313.41,146.44Z"/><path class="cls-9" d="M264.7,329.77c2.28,2.87-3.48,9.06-2.71,14.89,5.59,2.53,12.62,3.62,14.21,10.14-8.83,2.06-8.6-4.93-14.21-6.08-2.24.23-1.06,3.89-1.35,6.08.83,2.06,2.33-.73,4.06,0v7.44c-1.41.29-1.79-.46-2.71-.67.3,4.88,2.53,7.85,4.06,11.5,2.09-2.64,5.3-4.17,10.83-3.39-1,4.66-4.62,6.66-7.44,9.48,1,4.45,4.32,6.5,5.4,10.82-2.94,0-6.08.23-8.11-.68-.8-3.25-3-5.08-4.06-8.12-8.09.37-16.12.92-23-1.35a27.93,27.93,0,0,0-5.41,9.47c-2,.91-5.17.69-8.12.68-1.38-3,8.85-9,8.8-11.5,0-1.83-3.35-2.42-4.74-4.06-9.54-11.26-.29-26.88,14.88-29.76-.47-3.41,1.15-4.72.68-8.12A140.8,140.8,0,0,0,264.7,329.77Zm-16.23,11.51c4.33-1.7,7.31-.78,10.14,2,.16-3.23,3.55-6.8,2-9.46C257.14,336.87,249.54,335.81,248.47,341.28Zm2,2.7c1.34,1.25,4.19.21,5.42-.68C254.65,342.13,251.06,342.43,250.49,344Zm6.77,12.85c-.23-2.7,1.2-3.75.67-6.76-1.19-2-3.35,2.35-4.73,0,.42-1.42,3.47-2.54.68-3.38.48,1.83-3.19-.49-2.71,1.35C253.64,350.53,253.6,355.53,257.26,356.83Zm-10.82,1.36c2.79.09,5.22-.19,6.76-1.36-2.15-2.36-2.86-6.15-5.41-8.11C247.2,351.74,246.15,354.29,246.44,358.19Zm-11.5-.68c2.88.05,4.73,1.13,8.12.68.51-2.88.83-5.93,1.35-8.8C239.44,350.28,236.29,353,234.94,357.51Zm9.47,7.44c2.57.5,4.84-2.77,6.76-.68.26,3.87-3.32,3.9-4.06,6.77,5.09,5.91,10.16-1.93,8.12-9.47H245.08C245.64,363.48,244.13,363.32,244.41,365Zm-10.15-.68c.09,4,1.47,6.65,4.06,8.12a41.32,41.32,0,0,0,3.38-9.47C238.49,362.64,236.82,363.91,234.26,364.27ZM241,375.1c5,3.15,13.66,4.23,19.61,1.35-.48-2-.19-4.77-2-5.41-1.81,7.8-13.68,5.68-16.23,0A16,16,0,0,1,241,375.1Z"/><line class="cls-6" x1="141.73" y1="315.07" x2="358.27" y2="315.07"/><line class="cls-6" x1="141.73" y1="183.49" x2="358.27" y2="183.49"/><path class="cls-1" d="M49.38,228.31,48.52,243l4.48.26.59-10.21,2.6.16-.59,10.21,7.75.45-.17,2.89-17.43-1,1-17.58Z"/><path class="cls-1" d="M66.61,213.74l-.45,3.15-3.4,1.24L61.35,228l2.9,2.14-.45,3.15-13.53-10.1.51-3.56ZM60,219.19l-7,2.56,6,4.45Z"/><path class="cls-1" d="M60.5,192l.23,2.8A8.21,8.21,0,0,0,57,200.1a8,8,0,0,0,.16,5.24,4.77,4.77,0,0,0,7.36,1.88,8.22,8.22,0,0,0,2.66-4.58,8,8,0,0,0-.85-6.46l1.9-2.08a12.26,12.26,0,0,1-2.46,15.66A6.91,6.91,0,0,1,59.57,211a7,7,0,0,1-4.92-4.46A11.91,11.91,0,0,1,60.5,192Z"/><path class="cls-1" d="M74.06,173.69a4.39,4.39,0,0,1,2.74,3.54A14.06,14.06,0,0,1,72.34,189a4.44,4.44,0,0,1-4.41.83l-9.31-3.54,1-2.71,8.77,3.34c2,.77,3.75-.63,5.11-4.2s1-5.74-1-6.51l-8.77-3.34,1-2.7Z"/><path class="cls-1" d="M87,158.57l-6.46,12.82-13.25-6.68,1.3-2.59,10.93,5.51,5.15-10.23Z"/><path class="cls-1" d="M83.56,140.65l-3.63,6.09L90.43,153,89,155.49l-10.5-6.27-3.63,6.09L72.58,154l8.75-14.67Z"/><path class="cls-1" d="M94.31,121.6l2.16,12.15,4.68,3.49-1.73,2.32-4.68-3.49-12.23,1.35,2.11-2.83,9.22-1-1.63-9.14Z"/><path class="cls-1" d="M120.36,105.14a7,7,0,0,1,2,6.41,10.82,10.82,0,0,1-3.34,6,11.06,11.06,0,0,1-6.11,3.29,7.15,7.15,0,0,1-8.29-8.43,11.91,11.91,0,0,1,9.42-9.3A7,7,0,0,1,120.36,105.14Zm-2.15,2.11a4.62,4.62,0,0,0-4-1.37,8.73,8.73,0,0,0-6.93,6.86,4.79,4.79,0,0,0,5.31,5.44,7.78,7.78,0,0,0,4.54-2.43,7.63,7.63,0,0,0,2.45-4.47A4.66,4.66,0,0,0,118.21,107.25Z"/><path class="cls-1" d="M133,88.93l-9.8,7.79,2,2.51L132,93.82l1.62,2-6.82,5.41,4,5-2.26,1.8-9.23-11.62,12.07-9.59Z"/><path class="cls-1" d="M159.68,76.22a4.21,4.21,0,0,1,4.79,2.35q2.26,4-3.46,7.25l-12.08,6.92-8.68-15.16,12.25-7a6.2,6.2,0,0,1,4.27-.94,4.33,4.33,0,0,1,3,2.26A4.07,4.07,0,0,1,159.68,76.22Zm-3.51.67a3,3,0,0,0,1.41-1.6,2.12,2.12,0,0,0-.14-1.86A2.1,2.1,0,0,0,156,72.32a2.86,2.86,0,0,0-2,.43l-9.88,5.66,2.34,4.08Zm3.56,6.66q3.15-1.8,2-3.87c-.85-1.48-2.19-1.69-4-.65l-10,5.72L150.15,89Z"/><path class="cls-1" d="M184.22,69.84a4.41,4.41,0,0,1-.69,4.43,14,14,0,0,1-11.59,4.85,4.4,4.4,0,0,1-3.63-2.63l-3.85-9.19,2.67-1.12,3.62,8.66c.85,2,3,2.29,6.56.81s4.86-3.21,4-5.23l-3.62-8.66,2.67-1.11Z"/><path class="cls-1" d="M200.05,58.41a13.31,13.31,0,0,0-6.47.32q-4.74,1.4-4.25,3.08c.2.67.92.92,2.17.77,1.66-.34,3.32-.67,5-1a13.11,13.11,0,0,1,5.34-.21,3.42,3.42,0,0,1,2.53,2.55,4.1,4.1,0,0,1-1,4.14,12.12,12.12,0,0,1-5.57,3q-5.47,1.61-9.5.08l.92-2.41a12.85,12.85,0,0,0,7.83-.07A9.4,9.4,0,0,0,200.58,67a1.93,1.93,0,0,0,.84-2c-.22-.75-.92-1.13-2.09-1.12a14.52,14.52,0,0,0-2.9.48c-2,.49-3.23.77-3.7.86a8.59,8.59,0,0,1-4.22,0,3.06,3.06,0,0,1-2-2.2,3.78,3.78,0,0,1,1.05-3.82,11.54,11.54,0,0,1,5.26-2.84,13.89,13.89,0,0,1,8.41-.21Z"/><path class="cls-1" d="M211.77,67.22l-2.83.61-3.14-14.5,2.83-.61Z"/><path class="cls-1" d="M233.54,63.81l-4.28.58L217.62,53.47l1.65,12.26-2.87.39-2-14.71,4.28-.57,11.64,10.92-1.65-12.27,2.87-.38Z"/><path class="cls-1" d="M254.1,63.15l-16,.37-.35-14.83,15.41-.36.06,2.61-12.51.29.07,3.21,8.71-.21.06,2.61-8.71.2.09,3.81L254,60.54Z"/><path class="cls-1" d="M271.08,53.18a13.25,13.25,0,0,0-6.16-2c-3.29-.25-5,.21-5.06,1.38-.06.69.53,1.19,1.75,1.49l5,.84a13.22,13.22,0,0,1,5.07,1.69,3.45,3.45,0,0,1,1.47,3.29,4.08,4.08,0,0,1-2.41,3.51,11.91,11.91,0,0,1-6.27.83q-5.7-.43-8.91-3.29L257.28,59a12.79,12.79,0,0,0,7.34,2.72,9.52,9.52,0,0,0,3.93-.35q1.41-.53,1.5-1.59c.06-.78-.46-1.38-1.56-1.78a14.07,14.07,0,0,0-2.88-.59c-2.05-.25-3.3-.42-3.76-.5a8.57,8.57,0,0,1-4-1.49,3.06,3.06,0,0,1-1.1-2.77,3.78,3.78,0,0,1,2.34-3.19,11.46,11.46,0,0,1,5.92-.8A13.92,13.92,0,0,1,273,51.44Z"/><path class="cls-1" d="M291.19,56.38a13.33,13.33,0,0,0-5.93-2.61c-3.24-.58-5-.3-5.18.86-.12.68.41,1.23,1.59,1.66q2.46.66,4.9,1.35a12.93,12.93,0,0,1,4.88,2.2,3.44,3.44,0,0,1,1.12,3.41,4.08,4.08,0,0,1-2.75,3.25,11.9,11.9,0,0,1-6.32.19q-5.64-1-8.54-4.19l1.91-1.74a12.8,12.8,0,0,0,7,3.45,9.36,9.36,0,0,0,3.94.06c1-.25,1.53-.73,1.65-1.43s-.31-1.42-1.36-1.93a14.09,14.09,0,0,0-2.81-.88c-2-.46-3.24-.75-3.69-.89a8.5,8.5,0,0,1-3.78-1.88,3.06,3.06,0,0,1-.8-2.86,3.77,3.77,0,0,1,2.65-2.95,11.5,11.5,0,0,1,6-.18,13.92,13.92,0,0,1,7.62,3.58Z"/><path class="cls-1" d="M320.56,76.79l-3-1-.65-4.35-11.14-3.77-3.16,3-3-1L314,56.11l3.45,1.17Zm-4.15-8.29-1.49-9.44-7,6.57Z"/><path class="cls-1" d="M337.81,68.58a9.23,9.23,0,0,1,4.78,4.55,6.65,6.65,0,0,1-.13,5.76,8.15,8.15,0,0,1-4.65,4,5.43,5.43,0,0,1-2.57.25,10.27,10.27,0,0,1-3.38-.94l-9.1-4.34,6.38-13.39Zm-4.65,11.33a4.77,4.77,0,0,0,3.72.29,4.53,4.53,0,0,0,2.69-2.47,4.65,4.65,0,0,0,.22-3.83A5.46,5.46,0,0,0,336.88,71l-6.25-3-4.14,8.69Z"/><path class="cls-1" d="M359.76,98.57,357.33,97l6.54-10.31-11.74,4.47-.73-12.6-.11,0-6.6,10.27-2.44-1.56,8-12.48,3.66,2.35.55,10.32,9.64-3.77,3.66,2.35Z"/><path class="cls-1" d="M365.65,103.38l-2.29-1.78,9.1-11.71,2.29,1.77Z"/><path class="cls-1" d="M382.21,117.87,379,115l.9-15.93-8.35,9.13-2.13-2,10-10.95,3.18,2.91-.91,15.94,8.35-9.14,2.14,2Z"/><path class="cls-1" d="M387.34,123.51l-2-2.11,10.84-10.12,2,2.12Z"/><path class="cls-1" d="M407.77,130.45a13.38,13.38,0,0,0-2.77-5.86c-2.07-2.56-3.56-3.48-4.47-2.74-.54.43-.5,1.2.11,2.29q1.42,2.11,2.82,4.23a12.83,12.83,0,0,1,2.24,4.86,3.45,3.45,0,0,1-1.38,3.32,4.12,4.12,0,0,1-4.21.65,12,12,0,0,1-4.9-4q-3.58-4.44-3.71-8.75l2.58-.07a12.8,12.8,0,0,0,3.05,7.21,9.5,9.5,0,0,0,2.94,2.62,1.91,1.91,0,0,0,2.18,0c.62-.49.7-1.28.24-2.36a14.08,14.08,0,0,0-1.55-2.49c-1.22-1.67-1.95-2.7-2.21-3.09a8.65,8.65,0,0,1-1.62-3.9,3.07,3.07,0,0,1,1.26-2.69,3.79,3.79,0,0,1,3.93-.49,11.38,11.38,0,0,1,4.64,3.78,13.84,13.84,0,0,1,3.41,7.69Z"/><path class="cls-1" d="M420.21,146.71l-3.94-5.9L406.1,147.6l-1.61-2.41,10.17-6.79-3.93-5.9,2.16-1.44,9.49,14.2Z"/><path class="cls-1" d="M419.47,171.08l-1.55-2.93,3-6-3.44-6.52-4.82,2.55-1.35-2.56,13.11-6.93,5.6,10.6a5.33,5.33,0,0,1,.63,3.92,4.44,4.44,0,0,1-2.37,2.84,4.21,4.21,0,0,1-5.71-1.16Zm4.36-9c.82,1.55,1.82,2,3,1.38s1.46-1.83.59-3.48l-4-7.5-3.69,1.95Z"/><path class="cls-1" d="M427.17,190.2l-1.18-3,2.33-2.77-3.69-9.26-3.59-.4-1.18-3,16.77,2L438,177.2Zm3-8,4.79-5.7-7.41-.87Z"/><path class="cls-1" d="M442.86,200.37l-2.06-6.78-11.7,3.55-.84-2.77,11.7-3.55L437.9,184l2.49-.75,5,16.34Z"/><path class="cls-1" d="M432.26,209.34l-.66-2.82,14.46-3.34.65,2.82Z"/><path class="cls-1" d="M443.51,231.26a7,7,0,0,1-6.32-2.21,12.29,12.29,0,0,1-1.94-13.15,7.16,7.16,0,0,1,11.7-1.7,12,12,0,0,1,1.93,13.11A7,7,0,0,1,443.51,231.26Zm-.43-3a4.61,4.61,0,0,0,3.47-2.42,8.67,8.67,0,0,0-1.43-9.64,4.61,4.61,0,0,0-4-1.33,4.66,4.66,0,0,0-3.52,2.4,7.82,7.82,0,0,0-.73,5.09A7.72,7.72,0,0,0,439,227,4.68,4.68,0,0,0,443.08,228.28Z"/><path class="cls-1" d="M436.86,253.33l-.11-4.32,12.09-10.42-12.37.34-.08-2.89,14.83-.41.12,4.31-12.1,10.43,12.37-.34.08,2.89Z"/><path class="cls-1" d="M70.36,322.7l-2-3.17-1.87,3.23-1.78-1.19,2.38-3L63.41,318,64,315.9l3.53,1.19-.62-3.67,2.14-.1L69,317l3.3-1.68.9,2.39-3.59.92L72,321.36Z"/><path class="cls-1" d="M75.33,333.91l-2.15-3-1.66,3.34-1.85-1.08L71.85,330l-3.76-.4.42-2.1,3.6,1-.86-3.62,2.14-.23.21,3.65,3.18-1.88,1,2.33-3.52,1.14,2.61,2.58Z"/><path class="cls-1" d="M81,344.82l-2.34-2.9-1.44,3.44-1.91-1,2-3.24L73.52,341l.29-2.12,3.65.74-1.08-3.56,2.11-.37.45,3.63,3-2.08,1.2,2.26-3.44,1.36,2.76,2.41Z"/><path class="cls-1" d="M113.14,402.49l-1.9-1.74,8.9-9.78,1.91,1.74Z"/><path class="cls-1" d="M129,415.57l-3-2.38L125.81,399,119,407.61l-2-1.6,8.21-10.37,3,2.38.21,14.24,6.85-8.66,2,1.6Z"/><path class="cls-1" d="M156.54,420.17,147,414.41l-1.47,2.46,6.65,4-1.2,2-6.65-4-3,4.9-2.21-1.33L146,411.09l11.77,7.09Z"/><path class="cls-1" d="M170.91,432a6.27,6.27,0,0,1-4.81,3.54,11,11,0,0,1-10.66-5.18,6.39,6.39,0,0,1,4.64-9.47A10.64,10.64,0,0,1,170.69,426,6.25,6.25,0,0,1,170.91,432Zm-2.41-1.19a4.12,4.12,0,0,0,0-3.76,6.73,6.73,0,0,0-3.31-3.09,6.82,6.82,0,0,0-4.51-.71,4.26,4.26,0,0,0-3,6.08,6.89,6.89,0,0,0,3.38,3.1,6.76,6.76,0,0,0,4.49.73A4.15,4.15,0,0,0,168.5,430.79Z"/><path class="cls-1" d="M187,445.09l-2.77-1-1.58-5.76-6.16-2.26-1.68,4.56-2.42-.89,4.55-12.41,10,3.68a4.82,4.82,0,0,1,2.76,2.23,4,4,0,0,1,.11,3.29,3.76,3.76,0,0,1-4.47,2.65Zm-2.47-8.56c1.47.54,2.41.24,2.83-.89s-.13-2.08-1.69-2.65l-7.1-2.61-1.29,3.49Z"/><path class="cls-1" d="M205.11,450l-13.77-3.63,3.38-12.79L208,437.1l-.59,2.25-10.79-2.85-.73,2.77,7.51,2-.6,2.24-7.5-2-.87,3.29,11.27,3Z"/><path class="cls-1" d="M211.53,451.21l-2.53-.5,2.56-13,2.53.5Z"/><path class="cls-1" d="M233.91,447.16l0,.41a6.49,6.49,0,0,1-3,4.87,9.37,9.37,0,0,1-6.47,1.19,9.77,9.77,0,0,1-5.65-2.46,6.39,6.39,0,0,1,1.32-10.46,10,10,0,0,1,6.24-1,9.56,9.56,0,0,1,6.83,4l-2.57.89a6.91,6.91,0,0,0-4.71-2.57,6.8,6.8,0,0,0-4.46.79,4.1,4.1,0,0,0-2.11,3.12,4.16,4.16,0,0,0,1.22,3.59,6.85,6.85,0,0,0,4.17,1.85q4,.51,5.74-2.27l-5.91-.74.29-2.31Z"/><path class="cls-1" d="M253.14,455l-3.85-.09-8.73-11.24-.25,11-2.58-.06.3-13.22,3.85.09,8.73,11.24.26-11,2.58.06Z"/><path class="cls-1" d="M278,453.1l-12.73,1.28-1.33-13.15,2.56-.26,1.1,10.84,10.16-1Z"/><path class="cls-1" d="M297.19,449.59l-2.79.53-2-2.5-8.73,1.66-1,3.08-2.79.53,4.6-14.34,3.14-.6Zm-6.52-4-4.18-5.17-2,6.35Z"/><path class="cls-1" d="M315.18,444.41l-3.69,1.09-11.74-8.05L302.87,448l-2.48.73-3.73-12.69,3.69-1.08L312.09,443,309,432.45l2.47-.73Z"/><path class="cls-1" d="M332.94,429.62l.15.38a6.49,6.49,0,0,1-.2,5.72,9.34,9.34,0,0,1-5,4.22,9.71,9.71,0,0,1-6.13.64,6.38,6.38,0,0,1-4-9.75,10,10,0,0,1,4.93-3.95,9.49,9.49,0,0,1,7.89.08l-1.79,2a6.86,6.86,0,0,0-5.37.09,6.75,6.75,0,0,0-3.5,2.88,4.07,4.07,0,0,0-.29,3.75,4.14,4.14,0,0,0,2.83,2.52,6.81,6.81,0,0,0,4.54-.44q3.77-1.55,3.88-4.8l-5.51,2.26-.89-2.15Z"/><path class="cls-1" d="M351.27,423.23a3.92,3.92,0,0,1-.23,4,12.48,12.48,0,0,1-9.87,5.29,3.93,3.93,0,0,1-3.45-2l-4.19-7.83,2.27-1.21,3.95,7.37c.92,1.72,2.89,1.77,5.89.16s4-3.27,3.11-5l-3.95-7.37,2.28-1.22Z"/><path class="cls-1" d="M370.71,415.74l-2.37,1.57-2.84-1.52-7.4,4.92.31,3.21L356,425.49l-1.32-15,2.67-1.78Zm-7.57-1.17-5.86-3.14.61,6.63Z"/><path class="cls-1" d="M381.33,398l.26.31a6.51,6.51,0,0,1,1.45,5.53,9.39,9.39,0,0,1-3.61,5.5,9.79,9.79,0,0,1-5.69,2.37,6.39,6.39,0,0,1-6.64-8.19,9.92,9.92,0,0,1,3.59-5.2,9.55,9.55,0,0,1,7.58-2.19l-1.13,2.47a6.94,6.94,0,0,0-5.12,1.63,6.77,6.77,0,0,0-2.52,3.76,4.25,4.25,0,0,0,4.23,5.28,6.82,6.82,0,0,0,4.23-1.73c2.11-1.71,2.88-3.61,2.33-5.71l-4.63,3.75-1.46-1.8Z"/><path class="cls-1" d="M399.42,390.4l-10.14,10L380,391l9.79-9.65,1.63,1.66-7.95,7.83,2,2L391,387.4l1.63,1.66-5.53,5.44,2.39,2.42,8.3-8.17Z"/><path class="cls-1" d="M402.05,372.12a11.84,11.84,0,0,0-4.67,3.39c-1.9,2.24-2.46,3.7-1.66,4.37.47.4,1.13.24,2-.48q1.6-1.59,3.24-3.17a11.72,11.72,0,0,1,3.88-2.77,3.09,3.09,0,0,1,3.14.67,3.66,3.66,0,0,1,1.27,3.58,10.67,10.67,0,0,1-2.7,5,13.06,13.06,0,0,1-7.05,4.7l-.48-2.25a11.44,11.44,0,0,0,5.8-3.86,8.61,8.61,0,0,0,1.82-3,1.73,1.73,0,0,0-.36-1.92c-.54-.45-1.24-.39-2.11.19a12.25,12.25,0,0,0-1.93,1.77c-1.26,1.34-2,2.16-2.34,2.44a7.57,7.57,0,0,1-3.14,2.07,2.71,2.71,0,0,1-2.57-.66,3.35,3.35,0,0,1-1.08-3.36,10.18,10.18,0,0,1,2.54-4.69,12.38,12.38,0,0,1,6.17-4.26Z"/><path class="cls-1" d="M430.53,320.38l-.75,3.65,3.57-1.08.48,2.09-3.76.53,2.27,3-1.82,1.13-1.74-3.29-2.07,3.1-1.63-1.41,2.53-2.65-3.55-1,1-2.36,3.23,1.8.11-3.66Z"/><path class="cls-1" d="M434.62,308.8l-.52,3.69,3.49-1.3.61,2.05-3.72.77,2.47,2.87-1.75,1.24L433.25,315l-1.87,3.22-1.71-1.3,2.36-2.8-3.61-.82.83-2.42,3.34,1.59-.12-3.66Z"/><path class="cls-1" d="M438,297l-.29,3.71,3.41-1.51.74,2-3.67,1,2.64,2.72-1.66,1.35L437,303.19l-1.66,3.33-1.79-1.18,2.17-2.95-3.65-.58.68-2.47,3.44,1.37-.36-3.64Z"/></svg>